<svg xmlns="http://www.w3.org/2000/svg" width="37" height="38" fill="none" viewBox="0 0 37 38">
    <path fill="#E9679B" fill-rule="evenodd" d="M29.647 5.089c.804-.873 1.728-.503 2.432.205.708.706.734 1.791-.067 2.665-.815.876-2.153 1.21-2.859.504-.705-.705-.309-2.494.494-3.374zm2.799 3.204c.749-.655 1.54-.205 2.116.515.578.714.545 1.674-.205 2.325-.75.655-1.936.76-2.514.047-.584-.716-.146-2.232.603-2.887zm1.941 3.665c.723-.365 1.377.139 1.673.784.298.64-.034 1.012-.756 1.377-.731.361-1.679.226-1.975-.42-.304-.64.327-1.38 1.058-1.741zm.963 5.284c-.606.3-1.397.17-1.654-.382-.258-.552.292-1.455.891-1.747.603-.301 1.044.114 1.302.667.26.553.073 1.164-.54 1.462zM20.786 27.38c-2.155-1.26-3.057-3.974-1.666-6.847.524-1.085 1.022-1.619 1.424-2.05.667-.715 1.072-1.15.904-3.353-.262-3.495-.35-4.76 1.683-6.272 1.37-1.026 4.864-.85 7.088 1.945 2.218 2.8 3.881 7.229 1.043 10.443-1 1.126-1.709 1.56-2.267 1.901-.727.445-1.199.734-1.728 2.189-1.271 3.492-4.48 3.214-6.481 2.044zM28.45 5.09c-.9 1.449-2.728 2.258-3.952 1.424-1.217-.833-1.189-3.478-.283-4.924.899-1.448 2.334-1.146 3.548-.315 1.218.823 1.592 2.372.687 3.815zM6.3 15.116c-.834-.844-1.744-.442-2.423.29-.684.73-.672 1.816.16 2.661.844.847 2.194 1.133 2.874.404.68-.729.222-2.504-.612-3.355zm-2.686 3.3c-.77-.628-1.546-.151-2.096.588-.553.734-.487 1.693.286 2.317.771.628 1.96.693 2.513-.04.56-.737.069-2.237-.703-2.865zm-1.812 3.73c-.735-.339-1.371.187-1.644.843-.276.65.069 1.01.803 1.349.744.335 1.686.168 1.96-.488.281-.652-.375-1.368-1.119-1.704zm-.777 5.315c.615.279 1.401.122 1.64-.44.237-.56-.343-1.444-.952-1.715-.613-.28-1.04.151-1.278.712-.241.562-.032 1.166.59 1.443zm14.909 9.623c2.109-1.334 2.915-4.078 1.426-6.9-.563-1.067-1.078-1.582-1.496-2-.691-.691-1.111-1.11-1.02-3.319.14-3.502.183-4.77-1.901-6.21-1.405-.977-4.89-.68-7.015 2.192-2.12 2.875-3.627 7.36-.678 10.473 1.038 1.09 1.762 1.498 2.332 1.82.741.42 1.223.693 1.803 2.128 1.392 3.445 4.59 3.055 6.549 1.816zM7.496 15.076c.95 1.416 2.805 2.161 3.999 1.284 1.188-.874 1.067-3.516.112-4.93-.95-1.416-2.373-1.064-3.558-.19-1.188.864-1.507 2.425-.553 3.836z" clip-rule="evenodd"/>
</svg>
