<svg xmlns="http://www.w3.org/2000/svg" width="88" height="88" fill="none" viewBox="0 0 88 88">
    <g fill="#D2D3D5" fill-rule="evenodd" clip-path="url(#clip0)" clip-rule="evenodd">
        <path d="M0 30.667c0-4.839 3.923-8.762 8.762-8.762H78.86c4.839 0 8.762 3.923 8.762 8.762v8.762c0 4.84-3.923 8.762-8.762 8.762H8.762C3.922 48.191 0 44.268 0 39.43v-8.762zm78.859 0H8.762v8.762H78.86v-8.762z"/>
        <path d="M43.81 21.905c2.42 0 4.38 1.962 4.38 4.381V83.24c0 2.42-1.96 4.38-4.38 4.38s-4.381-1.96-4.381-4.38V26.286c0-2.42 1.961-4.38 4.38-4.38z"/>
        <path d="M13.144 39.43c2.42 0 4.38 1.96 4.38 4.38v30.668c0 1.162.462 2.276 1.284 3.097.822.822 1.936 1.284 3.098 1.284h43.81c1.162 0 2.276-.462 3.098-1.284.822-.821 1.283-1.936 1.283-3.097V43.81c0-2.42 1.962-4.38 4.381-4.38 2.42 0 4.381 1.96 4.381 4.38v30.668c0 3.485-1.384 6.828-3.85 9.293-2.464 2.465-5.807 3.85-9.293 3.85h-43.81c-3.486 0-6.829-1.385-9.294-3.85-2.465-2.465-3.85-5.808-3.85-9.293V43.81c0-2.42 1.962-4.38 4.382-4.38zM32.724 13.196c-2.891-3.213-5.894-4.48-8.551-4.435l-.077.001c-1.743 0-3.414.692-4.646 1.925-1.233 1.232-1.925 2.904-1.925 4.647 0 1.742.692 3.414 1.925 4.646 1.232 1.233 2.903 1.925 4.646 1.925 2.42 0 4.381 1.962 4.381 4.381 0 2.42-1.961 4.381-4.38 4.381-4.067 0-7.968-1.615-10.843-4.49C10.378 23.3 8.763 19.4 8.763 15.333c0-4.067 1.615-7.967 4.49-10.843C16.12 1.625 20.006.011 24.059 0c5.78-.088 11.047 2.743 15.18 7.335 1.724 1.916 3.253 4.134 4.573 6.582 1.32-2.448 2.849-4.666 4.574-6.582 4.132-4.592 9.4-7.423 15.18-7.335 4.052.01 7.937 1.625 10.803 4.491 2.876 2.876 4.491 6.776 4.491 10.843 0 4.066-1.615 7.966-4.49 10.842-2.876 2.876-6.777 4.491-10.843 4.491-2.42 0-4.381-1.961-4.381-4.38 0-2.42 1.961-4.382 4.38-4.382 1.744 0 3.415-.692 4.647-1.925 1.233-1.232 1.925-2.904 1.925-4.646 0-1.743-.692-3.415-1.925-4.647-1.232-1.233-2.903-1.925-4.646-1.925h-.077c-2.657-.047-5.66 1.221-8.552 4.434-2.914 3.238-5.369 8.107-6.829 14.123-.476 1.965-2.235 3.348-4.257 3.348s-3.78-1.383-4.258-3.348c-1.46-6.016-3.914-10.885-6.828-14.123z"/>
    </g>
    <defs>
        <clipPath id="clip0">
            <path fill="#fff" d="M0 0H87.621V87.621H0z"/>
        </clipPath>
    </defs>
</svg>
