<svg xmlns="http://www.w3.org/2000/svg" width="21" height="22" fill="none" viewBox="0 0 21 22">
    <path fill="#74787B" stroke="#74787B" stroke-width=".5" d="M20.75 9.75h0v-.006c0-.033-.005-.066-.011-.098l-.001-.017-.003-.028-.01-.026c-.01-.03-.022-.057-.035-.084-.008-.015-.016-.03-.026-.044-.023-.037-.052-.071-.084-.101l-.005-.005-.006-.005-.002-.002c-.022-.02-.045-.038-.07-.054h-.001l-1.777-1.147v-6.82c0-.15-.06-.293-.165-.398-.105-.106-.249-.165-.398-.165H2.844c-.15 0-.293.06-.398.165l.176.176-.176-.176c-.105.105-.165.248-.165.397v6.814L.51 9.269s0 0 0 0 0 0 0 0c-.025.016-.048.034-.069.053l-.003.003-.007.006-.006.005c-.031.03-.06.064-.084.1L.298 9.5v.037l-.01.027-.009.026-.002.022c-.011.033-.02.068-.025.103l-.002.018v10.955c0 .149.06.292.165.397.105.106.248.165.398.165h19.375c.149 0 .292-.06.397-.165.106-.105.165-.248.165-.398V9.75zm-8.45 6.217l7.325-5.136v9.294H1.375v-9.294L8.7 15.967h0c.529.368 1.157.566 1.8.566s1.271-.198 1.8-.565h0zm6.419-6.496l.462.3-.462.323v-.623zm-1.125-7.596v9.004l-5.939 4.166s0 0 0 0c-.339.236-.742.363-1.155.363-.413 0-.816-.127-1.155-.363 0 0 0 0 0 0L3.406 10.88V1.875h14.188zM1.819 9.771l.462-.299v.623L1.82 9.77z"/>
    <path fill="#74787B" stroke="#74787B" stroke-width=".5" d="M10.098 12.143c-.07-.03-.132-.073-.185-.127l-2.97-3.068h-.001c-.447-.457-.696-1.072-.692-1.71.004-.64.26-1.252.712-1.703.453-.452 1.066-.706 1.705-.708.61-.002 1.197.225 1.646.636.448-.42 1.04-.653 1.657-.653.644 0 1.262.255 1.718.71.455.456.711 1.074.711 1.718 0 .644-.255 1.261-.71 1.717l-2.966 3.06-.625.128zm0 0c.07.03.144.044.22.044m-.22-.044l.22.044m0 0c.075 0 .15-.015.22-.044.07-.03.132-.073.184-.127l-.404.171zm2.567-4.017l-2.567 2.647L7.746 8.17h0l-.003-.003c-.122-.12-.218-.264-.284-.423-.066-.158-.1-.328-.1-.5 0-.17.034-.34.1-.5.066-.157.162-.301.284-.422.243-.242.573-.378.917-.378.344 0 .673.135.917.378 0 0 0 0 0 0l.332.332s0 0 0 0c.053.052.115.094.183.123.069.028.143.043.217.043h0c.15-.001.292-.06.397-.166 0 0 0 0 0 0l.337-.335h0c.245-.245.578-.383.924-.382.346 0 .678.138.923.383.245.246.382.578.382.924 0 .347-.139.679-.384.924h0l-.003.003z"/>
</svg>
