<svg xmlns="http://www.w3.org/2000/svg" width="20" height="21" fill="none" viewBox="0 0 20 21">
    <g fill="#9FA1A4" fill-rule="evenodd" clip-path="url(#clip0)" clip-rule="evenodd">
        <path d="M10 2.625c-4.418 0-8 3.582-8 8 0 4.419 3.582 8 8 8s8-3.581 8-8c0-4.418-3.582-8-8-8zm-10 8c0-5.522 4.477-10 10-10s10 4.478 10 10c0 5.523-4.477 10-10 10s-10-4.477-10-10z"/>
        <path d="M6 10.626c0-.553.448-1 1-1h6c.552 0 1 .447 1 1 0 .552-.448 1-1 1H7c-.552 0-1-.448-1-1z"/>
        <path d="M10 6.625c.552 0 1 .448 1 1v6c0 .553-.448 1-1 1s-1-.447-1-1v-6c0-.552.448-1 1-1z"/>
    </g>
    <defs>
        <clipPath id="clip0">
            <path fill="#fff" d="M0 0H20V20H0z" transform="translate(0 .625)"/>
        </clipPath>
    </defs>
</svg>
