<svg xmlns="http://www.w3.org/2000/svg" width="44" height="44" fill="none" viewBox="0 0 44 44">
    <path fill="#EDEDEE" d="M0 22C0 9.85 9.85 0 22 0s22 9.85 22 22-9.85 22-22 22S0 34.15 0 22z"/>
    <path fill="#9FA1A4" fill-rule="evenodd" d="M14 22c0-.552.448-1 1-1h14c.552 0 1 .448 1 1s-.448 1-1 1H15c-.552 0-1-.448-1-1z" clip-rule="evenodd"/>
    <path fill="#9FA1A4" fill-rule="evenodd" d="M29.707 21.293c.39.39.39 1.024 0 1.414l-6 6c-.39.39-1.024.39-1.414 0-.39-.39-.39-1.024 0-1.414l6-6c.39-.39 1.024-.39 1.414 0z" clip-rule="evenodd"/>
    <path fill="#9FA1A4" fill-rule="evenodd" d="M22.293 15.293c.39-.39 1.024-.39 1.414 0l6 6c.39.39.39 1.024 0 1.414-.39.39-1.024.39-1.414 0l-6-6c-.39-.39-.39-1.024 0-1.414z" clip-rule="evenodd"/>
</svg>
