<svg xmlns="http://www.w3.org/2000/svg" width="20" height="20" fill="none" viewBox="0 0 20 20">
    <path fill="#FA9993" fill-rule="evenodd" d="M6.386 4.58c-.907-.036-1.792.29-2.459.905C3.26 6.1 2.865 6.956 2.83 7.863c-.018.45.053.898.208 1.32.153.416.385.798.684 1.125L10 16.586l6.278-6.278c.607-.665.928-1.544.892-2.445-.036-.907-.431-1.762-1.098-2.378-.667-.616-1.552-.941-2.459-.905-.907.036-1.762.431-2.378 1.098-.054.058-.114.11-.18.154-.312.208-.68.32-1.055.32-.376 0-.743-.112-1.055-.32-.066-.044-.126-.096-.18-.154-.615-.667-1.471-1.062-2.378-1.098zM2.57 4.015c1.057-.975 2.458-1.491 3.895-1.434 1.325.053 2.58.59 3.533 1.502.953-.912 2.208-1.449 3.533-1.502 1.438-.057 2.839.459 3.895 1.434 1.057.976 1.683 2.331 1.74 3.768.058 1.437-.458 2.838-1.433 3.895l-.028.03-7 7c-.187.187-.442.292-.707.292-.265 0-.52-.105-.707-.293l-7-7-.028-.029c-.483-.523-.858-1.136-1.104-1.805-.246-.668-.358-1.378-.33-2.09.058-1.437.684-2.792 1.74-3.768z" clip-rule="evenodd"/>
    <path fill="#FCBCB8" fill-rule="evenodd" d="M6.388 4.58c-.907-.036-1.792.29-2.459.905-.667.616-1.062 1.471-1.098 2.378-.018.45.053.898.208 1.32.153.416.385.798.684 1.125l6.278 6.278 6.278-6.278c.608-.665.928-1.544.892-2.445-.036-.907-.431-1.762-1.098-2.378-.667-.616-1.552-.941-2.459-.905-.907.036-1.762.431-2.378 1.098-.054.058-.114.11-.18.154-.312.208-.68.32-1.055.32-.376 0-.743-.112-1.055-.32-.066-.044-.126-.096-.18-.154-.615-.667-1.471-1.062-2.378-1.098z" clip-rule="evenodd" opacity=".5"/>
</svg>
