<svg xmlns="http://www.w3.org/2000/svg" width="20" height="20" fill="none" viewBox="0 0 20 20">
    <g clip-path="url(#clip0)">
        <path fill="#000" fill-rule="evenodd" d="M16.707 4.707c.39-.39.39-1.024 0-1.414-.39-.39-1.024-.39-1.414 0L10 8.586 4.707 3.293c-.39-.39-1.024-.39-1.414 0-.39.39-.39 1.024 0 1.414L8.586 10l-5.293 5.293c-.39.39-.39 1.024 0 1.414.39.39 1.024.39 1.414 0L10 11.414l5.293 5.293c.39.39 1.024.39 1.414 0 .39-.39.39-1.024 0-1.414L11.414 10l5.293-5.293z" clip-rule="evenodd"/>
    </g>
    <defs>
        <clipPath id="clip0">
            <path fill="#fff" d="M0 0H20V20H0z"/>
        </clipPath>
    </defs>
</svg>
