<svg xmlns="http://www.w3.org/2000/svg" width="24" height="20" fill="none" viewBox="0 0 24 20">
    <path fill="#D4EDF7" fill-rule="evenodd" d="M12.888 4c0 1.061.421 2.078 1.172 2.828C14.81 7.58 15.828 8 16.89 8c1.06 0 2.078-.42 2.828-1.172.75-.75 1.172-1.767 1.172-2.828s-.421-2.078-1.172-2.828C18.967.421 17.95 0 16.889 0S14.81.421 14.06 1.172c-.75.75-1.172 1.767-1.172 2.828zm-1.972 5.228c-.75.751-1.767 1.172-2.828 1.172-1.06 0-2.078-.42-2.828-1.172-.75-.75-1.172-1.767-1.172-2.828S4.51 4.322 5.26 3.572C6.01 2.82 7.027 2.4 8.088 2.4c1.062 0 2.079.42 2.829 1.172.75.75 1.172 1.767 1.172 2.828s-.421 2.078-1.173 2.828zM15.29 18.4v.8c0 .212-.084.416-.234.566-.15.15-.354.234-.566.234h-12.8c-.212 0-.416-.084-.566-.234-.15-.15-.234-.354-.234-.566v-.8c0-2.572 1.372-4.949 3.6-6.235 2.228-1.287 4.972-1.287 7.2 0 2.228 1.286 3.6 3.663 3.6 6.235zm8.488-2.145v.8c0 .212-.084.416-.234.566-.15.15-.354.234-.566.234h-6.243c-.212 0-.416-.084-.566-.234-.15-.15-.234-.354-.234-.566v-.8c0-1.177-1.085-2.312-2.05-3.322-1.143-1.197-2.116-2.216-.907-2.913 2.228-1.287 4.972-1.287 7.2 0 2.228 1.286 3.6 3.663 3.6 6.235z" clip-rule="evenodd"/>
    <path fill="#94D1EB" fill-rule="evenodd" d="M12.888 4c0 1.061.421 2.078 1.172 2.828C14.81 7.58 15.828 8 16.89 8c1.06 0 2.078-.42 2.828-1.172.75-.75 1.172-1.767 1.172-2.828s-.421-2.078-1.172-2.828C18.967.421 17.95 0 16.889 0S14.81.421 14.06 1.172c-.75.75-1.172 1.767-1.172 2.828zm6.4 0c0 .971-.585 1.846-1.482 2.217-.896.372-1.929.166-2.615-.52-.686-.686-.892-1.719-.52-2.615.371-.897 1.246-1.482 2.218-1.482 1.325 0 2.4 1.075 2.4 2.4zm-8.372 5.228c-.75.751-1.767 1.172-2.828 1.172-1.06 0-2.078-.42-2.828-1.172-.75-.75-1.172-1.767-1.172-2.828S4.51 4.322 5.26 3.572C6.01 2.82 7.027 2.4 8.088 2.4c1.062 0 2.079.42 2.829 1.172.75.75 1.172 1.767 1.172 2.828s-.421 2.078-1.173 2.828zm-.61-3.746C9.934 4.585 9.059 4 8.088 4c-1.325 0-2.4 1.075-2.4 2.4 0 .971.585 1.846 1.482 2.217.896.372 1.93.166 2.616-.52.686-.686.892-1.719.52-2.615zM15.288 18.4v.8c0 .212-.084.416-.234.566-.15.15-.354.234-.566.234h-12.8c-.212 0-.416-.084-.566-.234-.15-.15-.234-.354-.234-.566v-.8c0-2.572 1.372-4.949 3.6-6.235 2.228-1.287 4.972-1.287 7.2 0 2.228 1.286 3.6 3.663 3.6 6.235zm-10-4.85c-1.734 1.001-2.8 2.85-2.8 4.85h11.2c0-2-1.067-3.849-2.8-4.85-1.733-1-3.867-1-5.6 0zm18.488 2.705v.8c0 .212-.084.416-.234.566-.15.15-.354.234-.566.234h-6.243c-.212 0-.416-.084-.566-.234-.15-.15-.234-.354-.234-.566v-.8c0-1.177-1.085-2.312-2.05-3.322-1.143-1.197-2.116-2.216-.907-2.913 2.228-1.287 4.972-1.287 7.2 0 2.228 1.286 3.6 3.663 3.6 6.235zm-9.307-4.937c.693.48 3.063 2.936 3.063 4.937h4.644c0-2.001-1.067-3.85-2.8-4.85-1.733-1-3.174-1.087-4.907-.087z" clip-rule="evenodd"/>
</svg>
