<svg xmlns="http://www.w3.org/2000/svg" width="25" height="25" fill="none" viewBox="0 0 25 25">
    <path fill="#9FA1A4" fill-rule="evenodd" d="M19.7 10.473c1.324 0 2.4 1.076 2.4 2.4 0 1.324-1.076 2.4-2.4 2.4-1.324 0-2.4-1.076-2.4-2.4 0-1.323 1.076-2.4 2.4-2.4zm-7.2 0c1.324 0 2.4 1.076 2.4 2.4 0 1.324-1.076 2.4-2.4 2.4-1.324 0-2.4-1.076-2.4-2.4 0-1.323 1.076-2.4 2.4-2.4zm-7.2 0c1.324 0 2.4 1.076 2.4 2.4 0 1.324-1.076 2.4-2.4 2.4-1.324 0-2.4-1.076-2.4-2.4 0-1.323 1.076-2.4 2.4-2.4z" clip-rule="evenodd"/>
</svg>
