<svg xmlns="http://www.w3.org/2000/svg" width="60" height="60" fill="none" viewBox="0 0 60 60">
    <g fill="#4A4A4A" fill-rule="evenodd" clip-path="url(#clip0)" clip-rule="evenodd">
        <path d="M19.818 19.817c-5.623 5.624-5.623 14.741 0 20.365 5.624 5.623 14.742 5.623 20.365 0 5.624-5.624 5.624-14.741 0-20.365-5.623-5.623-14.741-5.623-20.365 0zm-2.545 22.91c-7.03-7.029-7.03-18.426 0-25.455 7.03-7.03 18.426-7.03 25.456 0 7.03 7.029 7.03 18.426 0 25.455-7.03 7.03-18.427 7.03-25.456 0z"/>
        <path d="M24.91 35.09c-.703-.703-.703-1.843 0-2.545l7.636-7.637c.703-.703 1.843-.703 2.546 0 .703.703.703 1.842 0 2.545l-7.637 7.637c-.703.703-1.842.703-2.545 0z"/>
        <path d="M24.91 24.909c.703-.703 1.842-.703 2.545 0l7.637 7.637c.703.703.703 1.842 0 2.545-.703.703-1.843.703-2.546 0l-7.636-7.637c-.703-.703-.703-1.842 0-2.545z"/>
    </g>
    <path fill="#4A4A4A" d="M44.344 8.172c0 1.563-2.344 1.563-2.344 0s2.344-1.563 2.344 0zM54.344 24.172c0 1.563-2.344 1.563-2.344 0s2.344-1.563 2.344 0zM21.344 50.172c0 1.563-2.344 1.563-2.344 0s2.344-1.563 2.344 0zM44.344 52.172c0 1.563-2.344 1.563-2.344 0s2.344-1.563 2.344 0zM6.344 34.172c0 1.563-2.344 1.563-2.344 0s2.344-1.563 2.344 0zM21.344 5.172c0 1.563-2.344 1.563-2.344 0s2.344-1.563 2.344 0zM9.102 47C6.84 47 5 48.84 5 51.1c0 2.262 1.84 4.102 4.102 4.102 2.261 0 4.101-1.84 4.101-4.102 0-2.262-1.84-4.102-4.101-4.102zm0 5.859c-.97 0-1.758-.788-1.758-1.758s.787-1.758 1.758-1.758c.97 0 1.757.788 1.757 1.758s-.787 1.758-1.757 1.758zM53.102 9C50.84 9 49 10.84 49 13.1c0 2.262 1.84 4.102 4.102 4.102 2.261 0 4.101-1.84 4.101-4.102 0-2.262-1.84-4.101-4.102-4.101zm0 5.859c-.97 0-1.758-.788-1.758-1.758s.787-1.758 1.758-1.758c.97 0 1.757.788 1.757 1.758s-.787 1.758-1.758 1.758z"/>
    <defs>
        <clipPath id="clip0">
            <path fill="#fff" d="M0 0H36V36H0z" transform="rotate(-45 38.485 9.514)"/>
        </clipPath>
    </defs>
</svg>
