<svg xmlns="http://www.w3.org/2000/svg" width="60" height="60" fill="none" viewBox="0 0 60 60">
    <g fill="#4A4A4A" fill-rule="evenodd" clip-path="url(#clip0)" clip-rule="evenodd">
        <path d="M30 15.6c-7.953 0-14.4 6.447-14.4 14.4 0 7.952 6.447 14.4 14.4 14.4S44.4 37.952 44.4 30c0-7.953-6.447-14.4-14.4-14.4zM12 30c0-9.942 8.059-18 18-18s18 8.058 18 18c0 9.94-8.059 18-18 18s-18-8.06-18-18z"/>
        <path d="M36.674 25.127c.703.703.703 1.843 0 2.545l-7.2 7.2c-.703.703-1.843.703-2.546 0l-3.6-3.6c-.703-.702-.703-1.842 0-2.545.703-.703 1.843-.703 2.546 0l2.327 2.327 5.927-5.927c.703-.703 1.843-.703 2.546 0z"/>
    </g>
    <path fill="#4A4A4A" d="M44.344 8.172c0 1.563-2.344 1.563-2.344 0s2.344-1.563 2.344 0zM54.344 24.172c0 1.563-2.344 1.563-2.344 0s2.344-1.563 2.344 0zM21.344 50.172c0 1.563-2.344 1.563-2.344 0s2.344-1.563 2.344 0zM44.344 52.172c0 1.563-2.344 1.563-2.344 0s2.344-1.563 2.344 0zM6.344 34.172c0 1.563-2.344 1.563-2.344 0s2.344-1.563 2.344 0zM21.344 5.172c0 1.563-2.344 1.563-2.344 0s2.344-1.563 2.344 0zM9.102 47C6.84 47 5 48.84 5 51.1c0 2.262 1.84 4.102 4.102 4.102 2.261 0 4.101-1.84 4.101-4.102 0-2.262-1.84-4.102-4.101-4.102zm0 5.859c-.97 0-1.758-.788-1.758-1.758s.787-1.758 1.758-1.758c.97 0 1.757.788 1.757 1.758s-.787 1.758-1.757 1.758zM53.102 9C50.84 9 49 10.84 49 13.1c0 2.262 1.84 4.102 4.102 4.102 2.261 0 4.101-1.84 4.101-4.102 0-2.262-1.84-4.101-4.102-4.101zm0 5.859c-.97 0-1.758-.788-1.758-1.758s.787-1.758 1.758-1.758c.97 0 1.757.788 1.757 1.758s-.787 1.758-1.758 1.758z"/>
    <defs>
        <clipPath id="clip0">
            <path fill="#fff" d="M0 0H36V36H0z" transform="translate(12 12)"/>
        </clipPath>
    </defs>
</svg>
