<svg xmlns="http://www.w3.org/2000/svg" width="36" height="36" fill="none" viewBox="0 0 36 36">
    <circle cx="18" cy="18" r="18" fill="#D2D3D5"/>
    <path fill="#fff" d="M17.5 13.361c-2.426 0-4.36 1.972-4.36 4.36 0 2.427 1.934 4.36 4.36 4.36 2.389 0 4.36-1.933 4.36-4.36 0-2.388-1.971-4.36-4.36-4.36zm0 7.203c-1.554 0-2.843-1.25-2.843-2.843 0-1.554 1.251-2.805 2.843-2.805 1.555 0 2.806 1.25 2.806 2.805 0 1.592-1.251 2.843-2.806 2.843zm5.535-7.354c0-.569-.455-1.024-1.023-1.024-.569 0-1.024.455-1.024 1.024 0 .568.455 1.023 1.024 1.023.568 0 1.023-.455 1.023-1.023zm2.881 1.023c-.075-1.365-.379-2.578-1.364-3.563-.986-.986-2.2-1.29-3.564-1.365-1.403-.076-5.61-.076-7.013 0-1.365.076-2.54.379-3.564 1.365-.986.985-1.289 2.198-1.365 3.563-.076 1.403-.076 5.611 0 7.014.076 1.365.38 2.54 1.365 3.564 1.024.985 2.199 1.288 3.564 1.364 1.402.076 5.61.076 7.013 0 1.365-.076 2.578-.379 3.564-1.364.985-1.024 1.289-2.2 1.364-3.564.076-1.403.076-5.611 0-7.014zm-1.82 8.492c-.265.759-.871 1.327-1.591 1.63-1.138.456-3.792.342-5.005.342-1.25 0-3.905.114-5.004-.341-.758-.304-1.327-.872-1.63-1.63-.455-1.1-.341-3.754-.341-5.005 0-1.213-.114-3.867.34-5.004.304-.72.873-1.29 1.631-1.592 1.1-.455 3.753-.342 5.004-.342 1.213 0 3.867-.113 5.005.342.72.265 1.289.872 1.592 1.592.455 1.137.341 3.791.341 5.004 0 1.251.114 3.905-.341 5.004z"/>
</svg>
