<svg xmlns="http://www.w3.org/2000/svg" width="42" height="42" fill="none" viewBox="0 0 42 42">
    <g fill="#E9679B" fill-rule="evenodd" clip-path="url(#clip0)" clip-rule="evenodd">
        <path d="M21 10.92c-5.567 0-10.08 4.512-10.08 10.08 0 5.567 4.513 10.08 10.08 10.08S31.08 26.566 31.08 21c0-5.568-4.513-10.08-10.08-10.08zM8.4 21C8.4 14.04 14.04 8.4 21 8.4S33.6 14.04 33.6 21c0 6.958-5.641 12.6-12.6 12.6S8.4 27.957 8.4 21z"/>
        <path d="M25.671 17.588c.492.492.492 1.29 0 1.782l-5.04 5.04c-.492.492-1.29.492-1.782 0l-2.52-2.52c-.492-.492-.492-1.29 0-1.782s1.29-.492 1.782 0l1.63 1.63 4.148-4.15c.492-.492 1.29-.492 1.782 0z"/>
    </g>
    <path fill="#E9679B" d="M31.04 5.72c0 1.095-1.64 1.095-1.64 0 0-1.094 1.64-1.094 1.64 0zM38.04 16.92c0 1.095-1.64 1.095-1.64 0 0-1.094 1.64-1.094 1.64 0zM14.94 35.12c0 1.095-1.64 1.095-1.64 0 0-1.094 1.64-1.094 1.64 0zM31.04 36.52c0 1.095-1.64 1.095-1.64 0 0-1.094 1.64-1.094 1.64 0zM4.44 23.92c0 1.095-1.64 1.095-1.64 0 0-1.094 1.64-1.094 1.64 0zM14.94 3.62c0 1.095-1.64 1.095-1.64 0 0-1.094 1.64-1.094 1.64 0zM6.371 32.9c-1.583 0-2.871 1.287-2.871 2.87 0 1.584 1.288 2.872 2.871 2.872s2.871-1.288 2.871-2.871c0-1.584-1.288-2.871-2.871-2.871zm0 4.101c-.68 0-1.23-.551-1.23-1.23 0-.68.55-1.23 1.23-1.23.68 0 1.23.55 1.23 1.23 0 .679-.55 1.23-1.23 1.23zM37.171 6.3c-1.583 0-2.871 1.287-2.871 2.87 0 1.584 1.288 2.872 2.871 2.872s2.871-1.288 2.871-2.871c0-1.584-1.288-2.871-2.871-2.871zm0 4.101c-.68 0-1.23-.551-1.23-1.23 0-.68.55-1.23 1.23-1.23.68 0 1.23.55 1.23 1.23 0 .679-.55 1.23-1.23 1.23z"/>
    <defs>
        <clipPath id="clip0">
            <path fill="#fff" d="M0 0H25.2V25.2H0z" transform="translate(8.4 8.4)"/>
        </clipPath>
    </defs>
</svg>
