<svg xmlns="http://www.w3.org/2000/svg" width="36" height="36" fill="none" viewBox="0 0 36 36">
    <circle cx="18" cy="18" r="18" fill="#1DA1F2"/>
    <path fill="#fff" d="M26.696 13.778c.758-.569 1.44-1.251 1.971-2.047-.682.303-1.478.53-2.274.606.834-.493 1.44-1.25 1.744-2.199-.759.455-1.63.797-2.502.986-.759-.796-1.782-1.251-2.92-1.251-2.198 0-3.98 1.782-3.98 3.98 0 .304.038.607.114.91-3.299-.189-6.256-1.781-8.227-4.17-.341.569-.53 1.251-.53 2.01 0 1.364.681 2.578 1.78 3.298-.644-.038-1.288-.19-1.819-.493v.038c0 1.933 1.365 3.526 3.185 3.905-.304.076-.683.151-1.024.151-.265 0-.493-.037-.758-.075.493 1.592 1.971 2.73 3.715 2.767-1.365 1.062-3.07 1.706-4.928 1.706-.341 0-.645-.038-.948-.076 1.744 1.138 3.829 1.782 6.104 1.782 7.316 0 11.297-6.028 11.297-11.297v-.531z"/>
</svg>
