<svg xmlns="http://www.w3.org/2000/svg" width="31" height="31" fill="none" viewBox="0 0 31 31">
    <path fill="#FCBCB8" fill-rule="evenodd" d="M10.08 7.743c-1.36-.055-2.687.434-3.687 1.357-1.001.924-1.594 2.207-1.648 3.568-.027.674.079 1.346.312 1.979.23.624.578 1.197 1.026 1.688l9.417 9.417 9.417-9.417c.911-.998 1.392-2.316 1.338-3.667-.054-1.36-.647-2.644-1.647-3.568-1-.923-2.327-1.412-3.688-1.357-1.36.054-2.644.647-3.568 1.648-.08.087-.17.164-.268.23-.47.313-1.02.48-1.584.48-.563 0-1.114-.167-1.583-.48-.099-.066-.189-.143-.27-.23-.923-1.001-2.206-1.594-3.567-1.648zm-5.722-.847c1.585-1.463 3.687-2.237 5.842-2.15 1.988.079 3.872.883 5.3 2.251 1.429-1.368 3.312-2.172 5.3-2.252 2.156-.086 4.257.688 5.843 2.151 1.585 1.463 2.524 3.496 2.61 5.652.086 2.156-.687 4.257-2.15 5.843l-.042.043-10.5 10.5c-.282.281-.663.44-1.06.44-.399 0-.78-.159-1.061-.44l-10.5-10.5-.042-.043c-.725-.785-1.287-1.705-1.656-2.708-.37-1.002-.537-2.067-.495-3.135.086-2.156 1.025-4.189 2.61-5.652z" clip-rule="evenodd"/>
    <path fill="#FCBCB8" fill-rule="evenodd" d="M10.08 7.743c-1.36-.055-2.687.434-3.687 1.357-1.001.924-1.594 2.207-1.648 3.568-.027.674.079 1.346.312 1.979.23.624.578 1.197 1.026 1.688l9.417 9.417 9.417-9.417c.911-.998 1.392-2.316 1.338-3.667-.054-1.36-.647-2.644-1.647-3.568-1-.923-2.327-1.412-3.688-1.357-1.36.054-2.644.647-3.568 1.648-.08.087-.17.164-.268.23-.47.313-1.02.48-1.584.48-.563 0-1.114-.167-1.583-.48-.099-.066-.189-.143-.27-.23-.923-1.001-2.206-1.594-3.567-1.648z" clip-rule="evenodd" opacity=".5"/>
</svg>
